<svg xmlns="http://www.w3.org/2000/svg" width="344.872" height="479.478" viewBox="0 0 344.872 479.478"><defs><style>.a,.b{fill:#aec5ef;}.a,.f{fill-rule:evenodd;}.c{fill:#ff9100;}.d{fill:#292dc2;}.e{fill:#363636;}.f{fill:#fff;}</style></defs><g transform="translate(-114.006 -48.688)"><path class="a" d="M174.875,73.817l53.443,78.631-1.7,1.151L173.178,74.967Z" transform="translate(42.637 18.107)"/><path class="a" d="M246.894,187.139,285.3,252l-1.769,1.045-38.4-64.861Z" transform="translate(94.478 99.761)"/><path class="a" d="M265.829,75.01l-3.992,51.158-2.051-.153,3.991-51.158Z" transform="translate(105.043 18.856)"/><rect class="b" width="116.562" height="2.057" transform="translate(340.583 286.06) rotate(-34.862)"/><rect class="b" width="105.741" height="2.054" transform="translate(227.796 424.046) rotate(-21.847)"/><path class="a" d="M236.817,285.585l14.161-98.227,2.035.29-14.161,98.227Z" transform="translate(88.492 99.92)"/><path class="a" d="M179.81,296.788l28.535-70.7,1.906.765-28.535,70.7Z" transform="translate(47.415 127.829)"/><path class="a" d="M161.22,224.843l61.512,2.019-.032,1.025-61.512-2.019Z" transform="translate(33.997 126.929)"/><rect class="b" width="1.369" height="116.317" transform="matrix(0.502, -0.865, 0.865, 0.502, 155.758, 296.528)"/><rect class="b" width="1.026" height="60.465" transform="matrix(0.181, -0.983, 0.983, 0.181, 136.026, 213.778)"/><rect class="b" width="90.375" height="2.057" transform="translate(155.852 294.938) rotate(-14.043)"/><rect class="b" width="1.029" height="90.198" transform="translate(164.767 139.472) rotate(-19.648)"/><rect class="b" width="2.056" height="76.344" transform="translate(256.292 355.241) rotate(-65.758)"/><path class="a" d="M196.763,254.09l83.773-66.88.639.8L197.4,254.894Z" transform="translate(59.631 99.812)"/><path class="a" d="M333.036,157.791l-75.352-19,.5-2,75.352,19Z" transform="translate(103.528 63.483)"/><path class="a" d="M257.626,159.031l56.257-52.24.7.752-56.257,52.239Z" transform="translate(103.486 41.866)"/><rect class="b" width="2.058" height="96.199" transform="translate(269.784 172.108) rotate(-71.74)"/><rect class="b" width="91.518" height="2.053" transform="translate(194.984 223.409) rotate(-35.477)"/><rect class="b" width="96.497" height="1.368" transform="matrix(0.181, -0.984, 0.984, 0.181, 269.434, 171.007)"/><path class="a" d="M204.368,151.769l99.74-77.34,1.254,1.625-99.739,77.34Z" transform="translate(65.111 18.548)"/><path class="a" d="M263.8,74.511l47.722,55.369-1.552,1.344L262.251,75.855Z" transform="translate(106.819 18.607)"/><path class="a" d="M291.848,106.928l19.246,71.118-1.986.531-19.246-71.118Z" transform="translate(126.713 41.965)"/><path class="a" d="M308.243,148.691,295.86,213.156l-2.019-.386L306.223,148.3Z" transform="translate(129.58 71.779)"/><rect class="b" width="81.46" height="2.057" transform="translate(378.038 351.71) rotate(-56.011)"/><path class="a" d="M193.629,298.454,160.653,225.74l1.874-.845L195.5,297.61Z" transform="translate(33.612 126.967)"/><path class="a" d="M177.082,249.567l-39.1-56.349,1.689-1.166,39.1,56.349Z" transform="translate(17.276 103.301)"/><rect class="b" width="1.368" height="85.043" transform="translate(135.454 213.434) rotate(-13.59)"/><path class="a" d="M126.3,175.109l29.133-73.974,1.914.748-29.133,73.974Z" transform="translate(8.86 37.791)"/><path class="a" d="M143.375,120.566l48.425-46.9,1.431,1.472-48.425,46.9Z" transform="translate(21.162 17.998)"/><path class="a" d="M297.053,83.687l-82.32-17.572.427-2.01L297.48,81.676Z" transform="translate(72.58 11.109)"/><path class="a" d="M171.852,80.48,245.7,64.3l.289,1.34L172.141,81.82Z" transform="translate(41.681 11.249)"/><path class="a" d="M282.283,225.438l-32.614,72.541-.937-.418,32.614-72.541Z" transform="translate(97.077 127.056)"/><path class="a" d="M267.32,137.543l-20.975,86.151-1-.241L266.323,137.3Z" transform="translate(94.639 63.851)"/><rect class="b" width="83.987" height="1.025" transform="translate(340.47 286.911) rotate(-1.829)"/><rect class="b" width="62.26" height="1.029" transform="matrix(0.844, -0.536, 0.536, 0.844, 326.05, 385.215)"/><rect class="b" width="2.058" height="43.964" transform="translate(325.409 386.116) rotate(-26.989)"/><path class="a" d="M180.364,266.88l118.1-.174v2.051l-118.1.174Z" transform="translate(47.814 157.094)"/><rect class="b" width="1.028" height="52.025" transform="translate(365.814 145.46) rotate(-85.496)"/><path class="a" d="M300.863,106.038l-95.748,26.183-.539-1.979,95.748-26.183Z" transform="translate(65.261 39.898)"/><path class="a" d="M262.95,104.689l-4.394,56.325-1.025-.077,4.394-56.325Z" transform="translate(103.417 40.297)"/><rect class="b" width="2.051" height="109.58" transform="translate(164.954 140.28) rotate(-73.113)"/><path class="a" d="M138.123,222.222l39.479-71.69,1.2.659-39.478,71.69Z" transform="translate(17.378 73.384)"/><rect class="c" width="55.061" height="55.061" rx="15.98" transform="translate(259.996 48.688)"/><rect class="d" width="45.637" height="45.637" rx="13.245" transform="translate(347.027 70.972)"/><rect class="e" width="20.703" height="20.703" rx="6.009" transform="translate(184.579 342.188)"/><path class="e" d="M5.029,0H12.3a5.029,5.029,0,0,1,5.029,5.029V12.3A5.029,5.029,0,0,1,12.3,17.326H5.028A5.028,5.028,0,0,1,0,12.3V5.029A5.029,5.029,0,0,1,5.029,0Z" transform="translate(415.767 276.08)"/><path class="d" d="M12.434,0H30.409A12.433,12.433,0,0,1,42.842,12.433V30.409A12.434,12.434,0,0,1,30.409,42.842H12.434A12.434,12.434,0,0,1,0,30.409V12.434A12.434,12.434,0,0,1,12.434,0Z" transform="translate(304.904 364.229)"/><rect class="e" width="20.385" height="20.387" rx="5.917" transform="translate(368.698 342.092)"/><rect class="c" width="37.736" height="37.736" rx="10.952" transform="translate(398.556 130.142)"/><rect class="e" width="18.765" height="18.765" rx="5.446" transform="translate(356.472 135.565)"/><rect class="e" width="28.399" height="28.4" rx="8.242" transform="translate(199.477 78.198)"/><path class="d" d="M17.345,0H42.42A17.346,17.346,0,0,1,59.765,17.346V42.42A17.346,17.346,0,0,1,42.42,59.766H17.345A17.345,17.345,0,0,1,0,42.42V17.345A17.345,17.345,0,0,1,17.345,0Z" transform="translate(135.369 109.416)"/><rect class="d" width="42.992" height="42.992" rx="12.477" transform="translate(134.606 274.44)"/><path class="c" d="M12.836,0H31.39A12.836,12.836,0,0,1,44.226,12.836V31.39A12.835,12.835,0,0,1,31.39,44.226H12.835A12.835,12.835,0,0,1,0,31.39V12.836A12.836,12.836,0,0,1,12.836,0Z" transform="translate(114.006 191.161)"/><path class="a" d="M209.4,200.993l-48.2-49.761.736-.716,48.2,49.761Z" transform="translate(34.008 73.372)"/><path class="a" d="M190.867,179.551l12.939,80.3-2.027.321-12.939-80.3Z" transform="translate(53.922 94.294)"/><path class="a" d="M205.355,119.7l71.064,115.774-.876.535L204.478,120.232Z" transform="translate(65.19 51.166)"/><path class="a" d="M188.849,222.581l26.332-102.876,1.995.507L190.844,223.088Z" transform="translate(53.928 51.172)"/><rect class="d" width="52.24" height="52.24" rx="15.161" transform="translate(335.341 175.153)"/><rect class="e" width="27.884" height="27.885" rx="8.093" transform="translate(181.637 210.303)"/><rect class="b" width="1.027" height="97.638" transform="translate(243.704 274.515) rotate(-82.102)"/><path class="d" d="M26.426,0h38.2A26.427,26.427,0,0,1,91.051,26.427v38.2A26.427,26.427,0,0,1,64.625,91.055h-38.2A26.425,26.425,0,0,1,0,64.63v-38.2A26.426,26.426,0,0,1,26.426,0Z" transform="translate(295.645 241.377)"/><rect class="c" width="53.794" height="53.795" rx="15.612" transform="translate(216.878 247.11)"/><path class="c" d="M19.614,0H47.966A19.613,19.613,0,0,1,67.58,19.613V47.967A19.613,19.613,0,0,1,47.966,67.58H19.613A19.613,19.613,0,0,1,0,47.968V19.614A19.614,19.614,0,0,1,19.614,0Z" transform="translate(222.923 320.513)"/><path class="c" d="M30.2,0H73.866a30.2,30.2,0,0,1,30.2,30.2V73.864a30.2,30.2,0,0,1-30.2,30.2H30.2A30.2,30.2,0,0,1,0,73.863V30.2A30.2,30.2,0,0,1,30.2,0Z" transform="translate(218.073 119.099)"/><path class="a" d="M287.914,309.712,182.79,286.634l.435-2.011L288.348,307.7Z" transform="translate(49.562 170.003)"/><rect class="b" width="2.331" height="61.891" transform="translate(227.025 425.164) rotate(-8.158)"/><path class="a" d="M253.569,267.5l-6.99,55.55-2.308-.282,6.99-55.55Z" transform="translate(93.863 157.464)"/><path class="e" d="M6.9,0h9.975a6.9,6.9,0,0,1,6.9,6.9v9.974a6.9,6.9,0,0,1-6.9,6.9H6.9a6.9,6.9,0,0,1-6.9-6.9V6.9A6.9,6.9,0,0,1,6.9,0Z" transform="translate(334.391 412.938)"/><path class="a" d="M292.9,285.5l-109.979,1.173-.011-1.367,109.979-1.173Z" transform="translate(49.651 169.647)"/><path class="a" d="M253.723,300.7l-18.033,19.99-1.733-1.56,18.032-19.991Z" transform="translate(86.431 180.46)"/><rect class="b" width="2.33" height="85.465" transform="translate(236.769 487.413) rotate(-80.503)"/><rect class="b" width="101.015" height="1.371" transform="translate(236.91 485.581) rotate(-4.288)"/><path class="a" d="M214.232,331.2l34.207-20.578,1.195,2L215.426,333.2Z" transform="translate(72.218 188.74)"/><path class="a" d="M235.17,339.05l-50.086-34.68,1.323-1.915,50.086,34.679Z" transform="translate(51.215 182.852)"/><rect class="e" width="19.761" height="19.761" rx="5.735" transform="translate(227.08 476.384)"/><rect class="e" width="14.445" height="14.445" rx="4.192" transform="translate(279.824 513.721)"/><rect class="e" width="19.021" height="19.02" rx="5.52" transform="translate(311.744 490.856)"/><path class="e" d="M3,0H7.348a3,3,0,0,1,3,3V7.349a3,3,0,0,1-3,3H3a3,3,0,0,1-3-3V3A3,3,0,0,1,3,0Z" transform="translate(334.111 475.199)"/><rect class="e" width="16.662" height="16.662" rx="4.836" transform="translate(224.239 447.3)"/><path class="a" d="M294.567,298.461,180.2,269l.574-2.253,114.37,29.459Z" transform="translate(47.694 157.124)"/><rect class="e" width="19.02" height="19.02" rx="5.52" transform="translate(333.039 444.948)"/><path class="e" d="M6.865,0H16.79a6.866,6.866,0,0,1,6.866,6.866V16.79a6.865,6.865,0,0,1-6.865,6.865H6.865A6.865,6.865,0,0,1,0,16.79V6.865A6.865,6.865,0,0,1,6.865,0Z" transform="translate(216.35 413.172)"/><rect class="d" width="44.129" height="44.13" rx="12.807" transform="translate(414.749 198.213)"/><path class="f" d="M246.291,122.755l8.861-2.189a1.817,1.817,0,0,1,.262-.065l1.454-.36L222.05,107.7l-34.817,12.438,10.576,2.615c.387-2.307,3.315-4.191,7.854-5.4a74.6,74.6,0,0,1,32.773,0c4.541,1.21,7.467,3.094,7.854,5.4ZM222.05,146.473h0a63.126,63.126,0,0,0,15.5-1.7c3.279-.874,5.308-1.8,5.308-2.576s-2.029-1.7-5.308-2.576a71.622,71.622,0,0,0-31.008,0c-3.279.874-5.308,1.8-5.308,2.576s2.029,1.7,5.308,2.576a63.136,63.136,0,0,0,15.5,1.7Zm16.387,1.653h0a74.6,74.6,0,0,1-32.773,0c-4.838-1.29-7.846-3.345-7.9-5.86l0-.065V126.315l-16.841-4.164a1.736,1.736,0,0,1-.277-3.343l40.82-14.583a1.729,1.729,0,0,1,1.167,0l40.822,14.583a1.736,1.736,0,0,1-.17,3.317l-5.848,1.445v14.1a4.942,4.942,0,0,1,1.743,1.127l.01.01a4.929,4.929,0,0,1-1.414,7.949,4.988,4.988,0,0,1,1.4.981l.01.009a4.92,4.92,0,0,1,1.445,3.481v10.468a3.926,3.926,0,0,1-1.156,2.777l-.007.005a3.913,3.913,0,0,1-2.777,1.156h-1.984a3.923,3.923,0,0,1-2.784-1.156v-.005a3.925,3.925,0,0,1-1.155-2.777V151.223a4.917,4.917,0,0,1,1.44-3.476l.01-.01a4.982,4.982,0,0,1,1.4-.984,4.925,4.925,0,0,1-1.411-7.952l.012-.01a4.951,4.951,0,0,1,1.738-1.124V124.429l-7.629,1.886,0,15.886,0,.081c-.064,2.509-3.071,4.558-7.9,5.845Zm-37.2-10.2h0V123.281c0-.773,2.029-1.7,5.308-2.576a71.63,71.63,0,0,1,31.01,0c3.278.874,5.306,1.8,5.306,2.576V137.93a21.227,21.227,0,0,0-4.425-1.657,74.6,74.6,0,0,0-32.773,0,21.264,21.264,0,0,0-4.425,1.657Zm55,2.994h0a1.768,1.768,0,0,1-1.079,0,1.436,1.436,0,0,0-.492.318l-.005.007a1.456,1.456,0,1,0,2.073,0l-.005-.007a1.437,1.437,0,0,0-.492-.318Zm-2,10.3h0v10.468a.473.473,0,0,0,.136.33l0,0a.466.466,0,0,0,.329.138h1.984a.456.456,0,0,0,.465-.465V151.223a1.447,1.447,0,0,0-.42-1.031l-.005-.007a1.477,1.477,0,0,0-2.063,0l-.005.007A1.449,1.449,0,0,0,254.242,151.223Z" transform="translate(47.187 39.944)"/><path class="f" d="M137.227,91.958h27.338a3.31,3.31,0,0,1,3.3,3.305V120.98a3.313,3.313,0,0,1-3.3,3.3v-.005l-13.615,0-.055,0-.053,0-13.615,0v0a3.31,3.31,0,0,1-3.3-3.3V95.263a3.31,3.31,0,0,1,3.3-3.305ZM150,107.223h0v-3.784a.9.9,0,0,1,.9-.9h1.461a2.051,2.051,0,0,0,1.454-.6l.038-.036a2.057,2.057,0,0,0-1.492-3.474H150.9a.9.9,0,0,1-.9-.9V93.751H137.227a1.507,1.507,0,0,0-1.507,1.512v11.96h3.694v-.564a3.846,3.846,0,0,1,6.566-2.722l.005.005a3.836,3.836,0,0,1,1.127,2.717v.564Zm1.793-13.472h0v2.887h.564a3.845,3.845,0,0,1,2.77,6.516l-.048.055a3.846,3.846,0,0,1-2.722,1.127h-.564v2.887h3.783a.9.9,0,0,1,.9.9v1.461a2.049,2.049,0,0,0,.6,1.454l0,0a2.067,2.067,0,0,0,2.911,0l0,0a2.049,2.049,0,0,0,.6-1.454v-1.461a.9.9,0,0,1,.9-.9h4.59V95.263a1.507,1.507,0,0,0-1.505-1.512ZM150,109.016h-3.783a.9.9,0,0,1-.9-.9v-1.461a2.049,2.049,0,0,0-.6-1.454l0,0a2.059,2.059,0,0,0-3.512,1.457v1.461a.9.9,0,0,1-.9.9h-4.59V120.98a1.513,1.513,0,0,0,.444,1.07,1.5,1.5,0,0,0,1.063.44v0H150V119.6h-.564a3.849,3.849,0,0,1,0-7.7H150v-2.887Zm1.793,0h0V112.8a.9.9,0,0,1-.9.9h-1.461a2.056,2.056,0,1,0,0,4.112H150.9a.9.9,0,0,1,.9.9v3.789h12.773v0a1.507,1.507,0,0,0,1.505-1.509V109.016h-3.694v.564a3.839,3.839,0,0,1-1.127,2.722h0a3.84,3.84,0,0,1-5.435,0l0-.005a3.834,3.834,0,0,1-1.129-2.717v-.564Z" transform="translate(14.356 31.178)"/><path class="f" d="M256.2,83.239a12.122,12.122,0,0,0,12.1,12.1h5.5l-3.348-5.091a.617.617,0,0,1-.069-.1l-.027-.043-.031-.048L270.283,90l-.029-.05-.028-.048h0l-.029-.05-.027-.048-.026-.05-.028-.052-.026-.048h0l-.026-.052-.024-.05-.024-.05-.024-.052h0l-.022-.05-.022-.052h0l-.021-.05-.022-.052-.021-.052h0l-.04-.1h0l-.017-.052h0l-.017-.052-.019-.053h0l-.034-.1-.017-.052h0l-.031-.1-.016-.053-.028-.1h0l-.012-.053h0l-.014-.052h0l-.012-.053-.01-.053-.012-.053-.01-.052-.01-.053-.01-.053-.009-.053h0l-.009-.053-.009-.053h0l-.007-.053h0c-.007-.053-.014-.107-.019-.16l-.005-.053-.005-.053,0-.055h0l0-.053,0-.053h0l0-.053,0-.053h0V87.3h0v-.215h0l0-.053h0l0-.053h0l0-.053h0l0-.053,0-.053,0-.053h0l.01-.107.005-.055.005-.053h0l.007-.053h0l.007-.053h0l.009-.052.007-.053h0l.009-.053h0c.01-.053.019-.107.029-.16h0l.012-.052c.01-.053.022-.1.034-.158l.014-.052h0l.014-.053h0l.014-.052h0l.014-.052h0l.016-.053h0c.015-.052.031-.1.048-.155h0l.017-.052c.024-.069.048-.136.074-.2l.021-.05.041-.1.021-.05.022-.05h0l.022-.05.024-.05.046-.1h0l.024-.048h0l.05-.1.026-.05.027-.048h0l.028-.048h0l.028-.048h0l.028-.048.029-.048h0l.029-.046.029-.048.031-.046h0l.031-.046.031-.046.033-.046.033-.046.033-.046.033-.045.034-.046.034-.045.036-.045h0l.034-.045.036-.045.036-.045.554-.659V75.559l-.64,0c-1.445,0-1.442.007-1.528.007l-.22-.009a4.177,4.177,0,0,1-1.148-.22,4.239,4.239,0,0,1-1.039-.532,4.053,4.053,0,0,1-.454-.382c-.176-.17-.348-.356-.466-.5l-.028-.033a5.425,5.425,0,0,0-9.616,3.445v5.9Zm24.719,4.379h0l-.007.065a5.5,5.5,0,0,1-.893,2.51l-4.124,6.27a.771.771,0,0,1-.68.41h-6.918a13.658,13.658,0,0,1-13.634-13.634v-5.9A6.957,6.957,0,0,1,267,72.928l.007.007a5.083,5.083,0,0,0,.365.387,2.973,2.973,0,0,0,.265.232,2.761,2.761,0,0,0,.664.334,2.65,2.65,0,0,0,.728.141l.081.005.06,0h1.528l.64,0V68.011a2.356,2.356,0,0,1,2.349-2.349h3.054a2.353,2.353,0,0,1,2.349,2.349V83l.554.659a5.4,5.4,0,0,1,1.275,3.956Zm-1.66.6h0a4.039,4.039,0,0,1-.518,1.132l-3.527,5.358-2.7-4.1a5.439,5.439,0,0,0,3.522-1.43,3.776,3.776,0,0,1,3.223-.958Zm-7.753.828h0l-.007-.014L271.476,89h0l-.019-.036-.017-.036-.019-.036-.017-.036h0l-.017-.036-.017-.038-.015-.036h0l-.017-.036v0l-.015-.036h0l-.014-.036h0l-.016-.038-.014-.038h0l-.014-.036-.014-.038-.012-.038h0l-.012-.038-.014-.036h0l-.012-.038-.012-.038h0l-.01-.038-.01-.038h0l-.01-.038h0l-.01-.04h0l-.01-.038h0l-.009-.038h0l-.009-.038h0l-.007-.038-.009-.038h0l-.009-.038h0l-.005-.04h0l-.009-.038h0l-.005-.04-.007-.038h0l-.005-.038h0l-.005-.04h0l-.005-.038h0l-.005-.038v0l-.005-.038h0l0-.038h0l0-.04h0l0-.038h0l0-.04h0l0-.038h0l0-.04,0-.038,0-.04v-.038h0v-.115h0v-.04h0l0-.038,0-.04,0-.038h0l0-.038,0-.04,0-.038h0l0-.038h0l.005-.038h0l0-.038h0l.005-.04.005-.038.005-.038h0l.007-.038h0l.005-.038.007-.038.007-.038h0l.007-.038h0l.009-.038h0l.009-.038.009-.038h0l.009-.038.009-.038h0l.009-.038h0l.01-.036.01-.038.012-.038h0l.01-.036h0l.012-.038.012-.038.012-.036h0l.012-.036h0l.012-.038h0l.014-.036.014-.036.016-.036h0l.014-.038h0l.015-.036.016-.036h0l.015-.036h0l.017-.036.017-.036.016-.034.019-.036.017-.036.019-.034.017-.036h0l.017-.034.021-.036h0l.019-.034h0l.021-.034.021-.034h0l.021-.034.021-.034h0l.022-.034.021-.034.024-.033.022-.034h0l.022-.034.024-.033.024-.033.024-.033h0l.024-.034.026-.031.024-.033.028-.033.026-.033.026-.033.5-.6h5.5l.5.6a3.969,3.969,0,0,1,.907,2.041,5.012,5.012,0,0,0-4.281,1.287,4.355,4.355,0,0,1-3.587,1.075ZM260.86,75.1h0a2.771,2.771,0,0,1,1.521,5.329l-.057.015a2.773,2.773,0,0,1-3.388-1.884l-.015-.055a2.773,2.773,0,0,1,1.939-3.4Zm-3,.542h0A4.3,4.3,0,1,1,262.8,81.9a.936.936,0,0,1-.124.034,4.3,4.3,0,0,1-5.212-2.952.769.769,0,0,1-.036-.127,4.3,4.3,0,0,1,.427-3.214Zm8.515,14.535h0l0,0a1.268,1.268,0,0,1,1.547.859l.015.053a1.268,1.268,0,0,1-.864,1.521l-.052.014a1.265,1.265,0,0,1-.65-2.445Zm-2.09-.165h0a2.788,2.788,0,0,1,1.61-1.289.725.725,0,0,1,.162-.045,2.793,2.793,0,0,1,3.329,1.9.738.738,0,0,1,.045.16,2.794,2.794,0,0,1-1.934,3.343l-.046.014a2.792,2.792,0,0,1-3.432-1.958l0,0a2.786,2.786,0,0,1,.268-2.121Zm-3.04-5.654h0a1.893,1.893,0,1,1-1.141.886,1.884,1.884,0,0,1,1.141-.886Zm-2.474.129h0a3.422,3.422,0,1,1,3.882,4.991l-.007,0a3.415,3.415,0,0,1-4.2-2.39l0-.007a3.413,3.413,0,0,1,.327-2.6Zm18.783-5.5h0v3.52h-4.676v-3.52Zm-4.676-1.536h0V68.011a.811.811,0,0,1,.81-.81h3.054a.814.814,0,0,1,.812.81v9.444Z" transform="translate(101.348 12.231)"/><path class="f" d="M136.423,203.85l2.627.809a.506.506,0,0,0,.095.022l1.158-.573V190.2h-3.88V203.85Zm5.406-.5h0l.607-.3a1.462,1.462,0,0,1,.582-.148,1.86,1.86,0,0,1,.492.05l2.163.5,0-13.252h-3.847v13.15Zm5.363.951h0a.763.763,0,0,1,0,.217v.177a.747.747,0,0,1-.074.327h0l-4.584,9.618a1.58,1.58,0,0,1-.618.676,1.722,1.722,0,0,1-1.739,0,1.556,1.556,0,0,1-.616-.676l-4.59-9.614a.774.774,0,0,1-.074-.329l0-19.225a2.557,2.557,0,0,1,.755-1.813v0a2.565,2.565,0,0,1,1.817-.754h7.161a2.564,2.564,0,0,1,1.815.755l0,0a2.569,2.569,0,0,1,.75,1.817h0v3.952l0,.05,0,.052-.005,14.776Zm-1.734.664h0l-1.994,4.184-1.822-.5a.857.857,0,0,0-.647.076l-2.025,1.134-2.034-4.258,1.667.513a1.908,1.908,0,0,0,.547.089,1.447,1.447,0,0,0,.656-.15l3.29-1.629a.417.417,0,0,1,.076.014l2.287.53Zm-.828-20.538h-7.161a1.039,1.039,0,0,0-.738.306l0,0a1.043,1.043,0,0,0-.306.74v3.278h9.253l0-3.278h0a1.047,1.047,0,0,0-.31-.738v0a1.041,1.041,0,0,0-.738-.3Zm-4.919,26.983h0l1.228,2.574a.076.076,0,0,0,.021.027.192.192,0,0,0,.089.019.2.2,0,0,0,.089-.019.158.158,0,0,0,.021-.027l1.552-3.259-1.189-.327Z" transform="translate(15.053 96.708)"/><path class="f" d="M122.621,139.1l-.048,0a.875.875,0,0,0-.821.871v22.352a.859.859,0,0,0,.256.613l.026.029a.862.862,0,0,0,.585.229v0H138.7a.875.875,0,0,0,.874-.871V156.5l-1.416,1.414a.7.7,0,0,1-.274.17l-5.21,2.13a1.117,1.117,0,0,1-1.223-.237h0a1.122,1.122,0,0,1-.239-1.222l0,0,2.144-5.255a.724.724,0,0,1,.157-.236l6.063-6.063,0-7.235h0a.866.866,0,0,0-.869-.867h-1.063v1.087a.711.711,0,1,1-1.421,0V139.1h-2.589v1.087a.711.711,0,1,1-1.421,0V139.1h-2.589v1.087a.711.711,0,1,1-1.421,0V139.1h-2.589v1.087a.71.71,0,1,1-1.419,0V139.1Zm10.75,18.116h0l1.244-3.047,8.635-8.635a.347.347,0,0,1,.213-.107.116.116,0,0,1,.089.024l2.426,2.426a.121.121,0,0,1,.022.089.346.346,0,0,1-.107.217l-8.635,8.632-3.011,1.23a.648.648,0,0,0-.194-.671.732.732,0,0,0-.683-.158Zm9.955-10.091h0a.735.735,0,0,1,1-.022.652.652,0,0,1,.026.951l-8.135,8.135a.737.737,0,0,1-1,.024.65.65,0,0,1-.026-.951l8.135-8.137Zm-2.337,7.963h0v7.237a2.294,2.294,0,0,1-2.288,2.285h-16.08l0,0a2.286,2.286,0,0,1-1.569-.626l-.046-.043a2.283,2.283,0,0,1-.671-1.617V139.966a2.294,2.294,0,0,1,2.211-2.285l.076-.005h1.567v-.919a.71.71,0,1,1,1.419,0v.919H128.2v-.919a.711.711,0,1,1,1.421,0v.919h2.589v-.919a.711.711,0,1,1,1.421,0v.919h2.589v-.919a.711.711,0,1,1,1.421,0v.919H138.7a2.3,2.3,0,0,1,2.288,2.288h0v5.821l1.258-1.258a1.768,1.768,0,0,1,1.129-.518,1.522,1.522,0,0,1,1.184.434l2.424,2.426a1.521,1.521,0,0,1,.435,1.184,1.772,1.772,0,0,1-.518,1.125Z" transform="translate(4.559 62.947)"/><path class="f" d="M281.96,214.971H264.53v2.693H287.4a.822.822,0,0,0,.816-.817v-36.3a.813.813,0,0,0-.236-.576l-.005-.005a.813.813,0,0,0-.575-.236h-1.944v31.748a3.482,3.482,0,0,1-1.029,2.469l0,0a3.489,3.489,0,0,1-2.472,1.025Zm-48.819-35.246H231.2a.81.81,0,0,0-.575.236.822.822,0,0,0-.243.582v36.3a.822.822,0,0,0,.239.578l0,0a.812.812,0,0,0,.575.241h22.87v-2.693H236.639a3.48,3.48,0,0,1-2.381-.943l-.091-.083a3.489,3.489,0,0,1-1.025-2.472V179.725Zm20.927,40.693H231.2a3.558,3.558,0,0,1-2.522-1.05v-.005a3.554,3.554,0,0,1-1.048-2.517v-36.3a3.586,3.586,0,0,1,3.57-3.57h1.943v-.267a3.5,3.5,0,0,1,3.5-3.5H281.96a3.487,3.487,0,0,1,2.467,1.025h.005a3.492,3.492,0,0,1,1.025,2.472v.267H287.4a3.556,3.556,0,0,1,2.515,1.048l.009.009a3.556,3.556,0,0,1,1.046,2.514v36.3a3.583,3.583,0,0,1-3.57,3.572H264.53v.167h0v.034h0l0,.036,0,.034-.005.034-.005.034-.005.034-.005.034-.007.033h0l-.007.033-.009.033-.01.033-.01.033h0l-.01.031h0l-.01.033h0l-.012.031-.014.029-.014.031h0l-.015.031-.015.029-.016.029h0l-.017.028-.017.028-.019.029h0l-.019.026-.019.028h0l-.021.026-.021.026-.022.026-.021.026-.022.022h0l-.021.024h0l-.022.022h0l-.024.024-.026.021-.024.022h0l-.024.021h0l-.028.019-.026.021h0l-.026.019-.028.017-.028.019h0l-.028.016-.029.017h0l-.029.015h0l-.029.014h0l-.029.015h0l-.031.014-.031.012-.031.012h0l-.031.012-.031.01h0l-.031.009h0l-.034.009-.033.009-.033.007-.034.007h0l-.034.005-.033.005-.036.005-.034,0-.034,0-.036,0-.034,0h-7.708l-.036,0h0l-.036,0-.033,0h0l-.034,0h0l-.034-.005-.034-.005-.033-.005h0l-.034-.007-.033-.007h0l-.033-.009h0l-.031-.009-.033-.009h0l-.033-.01h0l-.031-.012h0l-.031-.012h0l-.029-.012h0l-.029-.014h0l-.031-.015-.029-.014h0l-.028-.015-.031-.017h0l-.028-.016h0l-.027-.019-.029-.017h0l-.026-.019h0l-.026-.021h0l-.026-.019h0l-.026-.021-.026-.022-.024-.021h0l-.022-.024-.024-.022h0l-.022-.024h0l-.021-.022h0l-.021-.026h0l-.021-.026-.021-.026-.019-.026h0l-.019-.028h0l-.019-.026-.017-.029-.017-.028h0l-.015-.028-.017-.029h0l-.016-.029-.015-.031-.012-.031h0l-.014-.029-.012-.031h0l-.012-.033h0l-.01-.031-.01-.033h0l-.009-.033h0l-.009-.033h0l-.007-.033-.007-.033-.007-.034h0l-.005-.034h0l0-.034h0l0-.034h0l0-.034h0l0-.036,0-.034v-.036h0v-.131Zm-.217-36.025h0a1.377,1.377,0,1,1,0,2.755H239.966a1.377,1.377,0,1,1,0-2.755Zm0,16.639h0a1.376,1.376,0,1,1,0,2.753H239.966a1.376,1.376,0,1,1,0-2.753Zm0-8.321h0a1.377,1.377,0,1,1,0,2.755H239.966a1.377,1.377,0,1,1,0-2.755Zm24.783-8.319h0a1.376,1.376,0,1,1,0,2.753H264.747a1.376,1.376,0,1,1,0-2.753Zm0,16.638h0a1.377,1.377,0,1,1,0,2.755H264.747a1.377,1.377,0,0,1,0-2.755Zm0-8.319h0a1.377,1.377,0,1,1,0,2.755H264.747a1.377,1.377,0,0,1,0-2.755Zm-16.858,22.259h-4.953v4.2h4.953v-4.2Zm-3.854-2.753H236.639a.756.756,0,0,1-.487-.179l-.038-.041a.741.741,0,0,1-.219-.525V176.706a.746.746,0,0,1,.743-.743h21.283v36.255Zm2.755,0h0V175.963H281.96a.748.748,0,0,1,.528.217l0,0a.736.736,0,0,1,.22.525v34.767a.746.746,0,0,1-.213.525h-.007a.736.736,0,0,1-.525.22Z" transform="translate(81.871 89.723)"/><path class="f" d="M208.3,171.094a1.4,1.4,0,0,0-.458-.306,1.49,1.49,0,0,0-1.039-.019,1.437,1.437,0,0,0-.428.26h0a1.377,1.377,0,0,0-.317.394,1.344,1.344,0,0,0-.153.458l-.012.12,0,.093h0a1.418,1.418,0,0,0,.1.544,1.388,1.388,0,0,0,.3.454h0a1.37,1.37,0,0,0,1,.413,1.573,1.573,0,0,0,.236-.016,1.518,1.518,0,0,0,.225-.06,1.286,1.286,0,0,0,.213-.095h0a1.283,1.283,0,0,0,.193-.124,1.446,1.446,0,0,0,.225-.222,1.464,1.464,0,0,0,.172-.275,1.417,1.417,0,0,0,.108-.3,1.554,1.554,0,0,0,.033-.322,1.43,1.43,0,0,0-.1-.544,1.407,1.407,0,0,0-.308-.454l0,0Zm-8.31,14.577h0a2.532,2.532,0,0,0-4.128,2.756v0a2.575,2.575,0,0,0,1.368,1.368h0a2.565,2.565,0,0,0,1.934,0h0a2.5,2.5,0,0,0,.816-.551h.005a2.532,2.532,0,0,0,.547-.821,2.573,2.573,0,0,0,0-1.937,2.539,2.539,0,0,0-.549-.819Zm-.1-2.287h0a4.428,4.428,0,0,1,1.431.957l.005,0a4.4,4.4,0,0,1,.955,4.8v0a4.4,4.4,0,0,1-.958,1.43l0,0a4.4,4.4,0,0,1-4.807.957,4.389,4.389,0,0,1-2.386-2.388,4.409,4.409,0,0,1,.953-4.8l0,0a4.4,4.4,0,0,1,4.8-.957Zm-18.2,3.075h0a1.441,1.441,0,0,0-1.5-.323,1.4,1.4,0,0,0-.427.258h-.005a1.44,1.44,0,0,0-.317.4,1.332,1.332,0,0,0-.151.456l-.014.122,0,.093h0a1.417,1.417,0,0,0,.1.544,1.4,1.4,0,0,0,.3.454l0,0a1.4,1.4,0,0,0,.456.3,1.418,1.418,0,0,0,.544.1,1.573,1.573,0,0,0,.236-.015,1.446,1.446,0,0,0,.225-.059,1.588,1.588,0,0,0,.215-.1h0a1.358,1.358,0,0,0,.191-.124,1.457,1.457,0,0,0,.225-.224,1.4,1.4,0,0,0,.174-.274,1.387,1.387,0,0,0,.107-.3,1.476,1.476,0,0,0-.071-.864,1.435,1.435,0,0,0-.306-.458Zm1.146-1.5h0c.064.055.124.11.182.169l0,0a3.313,3.313,0,0,1,.964,2.328,3.276,3.276,0,0,1-.733,2.072,3.263,3.263,0,0,1-.416.428,11.874,11.874,0,0,0,4.078,2.5,32.44,32.44,0,0,1,1.665-5,32.388,32.388,0,0,1-1.665-5,11.88,11.88,0,0,0-4.078,2.5Zm-1.82,5.779h0c-.112.01-.22.017-.325.017a3.272,3.272,0,0,1-1.259-.253,3.321,3.321,0,0,1-1.068-.712l-.005,0a3.332,3.332,0,0,1-.964-2.328l0-.029.01-.232.021-.191a3.258,3.258,0,0,1,.366-1.117,3.3,3.3,0,0,1,.736-.915l0,0a3.321,3.321,0,0,1,2.161-.809c.108,0,.219.005.325.015a13.179,13.179,0,0,1,5.523-3.586q-.09-.568-.15-1.113c-.406-3.866.463-6.9,2.7-8.2s5.308-.53,8.455,1.758c.3.213.59.44.888.681a13.15,13.15,0,0,1,5.869-2.987c.034-.072.069-.143.107-.212a3.325,3.325,0,0,1,.735-.915l0,0a3.3,3.3,0,0,1,4.489.155h.005a3.336,3.336,0,0,1,.712,1.074,3.3,3.3,0,0,1,.251,1.258,3.355,3.355,0,0,1-.086.74,3.27,3.27,0,0,1-.246.7,3.323,3.323,0,0,1-.287.478,13.145,13.145,0,0,1,.348,6.576c.356.138.7.28,1.034.427,3.556,1.583,5.757,3.856,5.757,6.442s-2.2,4.859-5.757,6.442c-.332.148-.678.291-1.034.427a13.157,13.157,0,0,1-.348,6.579,3.281,3.281,0,0,1,.619,1.918,3.312,3.312,0,0,1-.964,2.328l-.005,0a3.307,3.307,0,0,1-4.489.157l0,0a3.333,3.333,0,0,1-.735-.917c-.038-.069-.072-.139-.107-.212a13.158,13.158,0,0,1-5.869-2.987c-.3.241-.592.47-.886.683-3.147,2.287-6.213,3.054-8.455,1.76s-3.111-4.334-2.7-8.2c.04-.363.089-.735.15-1.111a13.175,13.175,0,0,1-5.523-3.587Zm26.758,10.748h0a1.609,1.609,0,0,0-.231-.055,1.371,1.371,0,0,0-.237-.017,1.411,1.411,0,0,0-.544.1,1.383,1.383,0,0,0-.454.3l-.005,0a1.429,1.429,0,0,0-.3.459,1.4,1.4,0,0,0-.1.54h0l0,.1.01.112a1.362,1.362,0,0,0,.155.463,1.409,1.409,0,0,0,.317.4h0a1.362,1.362,0,0,0,.926.344,1.416,1.416,0,0,0,.542-.1,1.372,1.372,0,0,0,.458-.306,1.375,1.375,0,0,0,.409-1,1.46,1.46,0,0,0-.028-.3,1.393,1.393,0,0,0-.089-.275,1.295,1.295,0,0,0-.351-.477l-.074-.064a1.354,1.354,0,0,0-.194-.129,1.272,1.272,0,0,0-.2-.093Zm.072-1.91h0a3.24,3.24,0,0,1,.525.129l.007,0,.019.007a11.9,11.9,0,0,0,.126-4.78,32.615,32.615,0,0,1-5.162,1.06,32.581,32.581,0,0,1-3.493,3.938,11.858,11.858,0,0,0,4.2,2.281,3.212,3.212,0,0,1,.2-.649v-.005a3.257,3.257,0,0,1,.714-1.065l0,0a3.271,3.271,0,0,1,2.868-.917Zm-3.78-26.875h0a3.358,3.358,0,0,0,.91,1.721l0,0a3.278,3.278,0,0,0,2.873.919h0a3.2,3.2,0,0,0,.528-.132l.019-.007a11.89,11.89,0,0,1,.126,4.778,32.389,32.389,0,0,0-5.162-1.058,32.32,32.32,0,0,0-3.493-3.938,11.893,11.893,0,0,1,4.2-2.283Zm-15.719,7.28h0a32.517,32.517,0,0,1,5.16-1.058,32.645,32.645,0,0,1,3.491-3.94c-.184-.145-.37-.286-.554-.42-2.54-1.844-4.876-2.543-6.411-1.657h0c-1.535.886-2.1,3.26-1.77,6.383q.036.341.088.692Zm10.088-3.763h0a28.407,28.407,0,0,0-2.335,2.469q1.146-.067,2.335-.067t2.333.065a28.909,28.909,0,0,0-2.333-2.467Zm-8.764,8.882h0q.516-1.03,1.111-2.061T192,181.053a28.587,28.587,0,0,0-3.31.785,28.311,28.311,0,0,0,.974,3.264ZM197,199.936h0A32.367,32.367,0,0,1,193.5,196a32.531,32.531,0,0,1-5.158-1.058q-.052.351-.088.692c-.327,3.123.236,5.5,1.77,6.383s3.875.189,6.414-1.657c.184-.134.37-.274.556-.42ZM192,193.869h0q-.632-.963-1.225-1.989v0q-.594-1.03-1.11-2.058a28.325,28.325,0,0,0-.976,3.264,28.568,28.568,0,0,0,3.31.786Zm12.854-12.816h0q.63.96,1.225,1.987v.005q.594,1.027,1.11,2.056a28.3,28.3,0,0,0,.976-3.262,28.394,28.394,0,0,0-3.31-.786Zm3.427,6.409h0a32.514,32.514,0,0,1,1.665,5c.219-.088.434-.179.643-.272,2.865-1.275,4.637-2.951,4.637-4.726s-1.772-3.45-4.637-4.726c-.21-.091-.425-.182-.643-.272a32.609,32.609,0,0,1-1.665,5Zm-.117,5.621h0a28.528,28.528,0,0,0-.974-3.262q-.519,1.03-1.111,2.06t-1.225,1.987a28.75,28.75,0,0,0,3.31-.785Zm-1.93-5.624h0a38.917,38.917,0,0,1-3.9,6.76,38.933,38.933,0,0,1-7.806,0,37.861,37.861,0,0,1-2.123-3.279,38.475,38.475,0,0,1-1.781-3.477,38.51,38.51,0,0,1,1.783-3.479v0a38.2,38.2,0,0,1,2.118-3.278,39.331,39.331,0,0,1,7.811,0,38.9,38.9,0,0,1,3.9,6.757ZM196.1,196.233h0a28.931,28.931,0,0,0,2.335,2.469,28.686,28.686,0,0,0,2.333-2.469c-.766.043-1.543.067-2.333.067S196.863,196.276,196.1,196.233Z" transform="translate(45.673 86.546)"/><path class="f" d="M212.818,222.909a4.669,4.669,0,0,0-2.183-.717,13.728,13.728,0,0,0-4.112,0,4.653,4.653,0,0,0-2.182.717,7.248,7.248,0,0,1,.557.618,6.788,6.788,0,0,1,1.251,2.383h4.861a6.816,6.816,0,0,1,1.251-2.383,7.548,7.548,0,0,1,.557-.618Zm-10.279-1.373h0a6.149,6.149,0,0,1,3.611-1.626,15.39,15.39,0,0,1,4.855,0,6.149,6.149,0,0,1,3.611,1.626,13.918,13.918,0,0,1,4.148-1.55,20.866,20.866,0,0,1,7.641-.153,10.574,10.574,0,0,1,4.709,1.841,8.061,8.061,0,0,1,2.674,4.236h1.4a1.159,1.159,0,1,1,0,2.318h-1.068l0,.071a11.312,11.312,0,0,1-.563,3.794,11.021,11.021,0,0,1-1.879,3.481,10.137,10.137,0,0,1-2.159,2.006l1.074,3.768a1.157,1.157,0,1,1-2.226.633l-.941-3.3a11.244,11.244,0,0,1-3.771.721,14.007,14.007,0,0,1-4.295-.568A12.275,12.275,0,0,1,215.605,237a12.478,12.478,0,0,1-3.89-4.711,10.135,10.135,0,0,1-.994-4.06h-4.282a10.132,10.132,0,0,1-.993,4.06,12.522,12.522,0,0,1-3.89,4.711,12.284,12.284,0,0,1-3.763,1.832,14,14,0,0,1-4.294.568,11.242,11.242,0,0,1-3.778-.723l-.933,3.3a1.157,1.157,0,0,1-2.228-.625l1.068-3.777a10.22,10.22,0,0,1-2.154-2,11.022,11.022,0,0,1-1.879-3.481,11.355,11.355,0,0,1-.563-3.794l0-.071h-1.068a1.159,1.159,0,0,1,0-2.318h1.406a8.04,8.04,0,0,1,2.674-4.236,10.547,10.547,0,0,1,4.707-1.841,20.875,20.875,0,0,1,7.643.153,13.9,13.9,0,0,1,4.145,1.55Zm1.585,6.691h-11.45l-2.321,8.209a8.821,8.821,0,0,0,3.2.654,11.6,11.6,0,0,0,3.587-.477,9.942,9.942,0,0,0,3.049-1.48,10.15,10.15,0,0,0,3.164-3.823,7.791,7.791,0,0,0,.771-3.083Zm-15.82,6.954h0l1.967-6.954h-4.926l0,.124a9.12,9.12,0,0,0,.453,3.025,8.764,8.764,0,0,0,1.481,2.748,8.067,8.067,0,0,0,1.029,1.058Zm-2.514-9.272h17.894a4.54,4.54,0,0,0-.587-.934,9.016,9.016,0,0,0-5.184-2.727,18.475,18.475,0,0,0-6.772-.134,8.316,8.316,0,0,0-3.648,1.361,5.555,5.555,0,0,0-1.7,2.435Zm43.878-2.435h0a8.324,8.324,0,0,0-3.649-1.361,18.485,18.485,0,0,0-6.774.134,9.011,9.011,0,0,0-5.182,2.727,4.613,4.613,0,0,0-.587.934h17.894a5.566,5.566,0,0,0-1.7-2.435Zm-16.633,4.752h0a7.821,7.821,0,0,0,.771,3.083,10.139,10.139,0,0,0,3.166,3.823,9.932,9.932,0,0,0,3.047,1.48,11.608,11.608,0,0,0,3.587.477,8.827,8.827,0,0,0,3.188-.649l-2.34-8.214Zm15.812,6.961h0a8.082,8.082,0,0,0,1.037-1.065,8.689,8.689,0,0,0,1.48-2.748,8.992,8.992,0,0,0,.454-3.025l0-.124h-4.952Z" transform="translate(48.134 123.117)"/><path class="f" d="M251.823,251.926a.634.634,0,1,1,0,1.268H241.99a1.3,1.3,0,0,1-.182.229,1.23,1.23,0,0,1-1.91-.229h-3.985a.634.634,0,0,1,0-1.268H239.9a1.233,1.233,0,0,1,.181-.229v0a1.221,1.221,0,0,1,1.727,0,1.251,1.251,0,0,1,.182.231Zm-1.167,4.73h0v.151a.634.634,0,1,1-1.268,0v-.151H229.745a.042.042,0,0,0-.026.009v0a.041.041,0,0,0-.01.026V257.9a.038.038,0,0,0,.01.026.037.037,0,0,0,.026.012h28.248a.04.04,0,0,0,.026-.012.035.035,0,0,0,.01-.026v-1.208a.049.049,0,0,0-.01-.026l-.007-.005-.019-.005h-2.966v.151a.634.634,0,1,1-1.268,0v-.151h-.917v.151a.634.634,0,1,1-1.268,0v-.151Zm6.535-1.268h0V239.827a1.3,1.3,0,0,0-1.3-1.3H231.851a1.3,1.3,0,0,0-1.3,1.3v15.561h-.8a1.3,1.3,0,0,0-.921.384l0,0a1.308,1.308,0,0,0-.382.922V257.9a1.3,1.3,0,0,0,1.3,1.3h28.248a1.3,1.3,0,0,0,1.3-1.3v-1.208a1.3,1.3,0,0,0-.382-.922l-.048-.041a1.3,1.3,0,0,0-.874-.341Zm-12.689-15.6h0v.151a.634.634,0,1,1-1.268,0v-.151H231.851a.035.035,0,0,0-.026.01.037.037,0,0,0-.012.026v15.561h24.11V239.827a.035.035,0,0,0-.01-.026.038.038,0,0,0-.026-.01Zm-2.713,3.448h0l5.005,2.467a.632.632,0,0,1,0,1.134l-5.046,2.486a.632.632,0,0,1-.846-.287.624.624,0,0,1-.065-.279h0v-4.974a.633.633,0,0,1,.955-.547Zm3.295,3.033h0l-2.982,1.469V244.8Z" transform="translate(82.456 136.786)"/><path class="f" d="M257.883,160.3a1.793,1.793,0,0,0-.791.542A1.773,1.773,0,0,0,256.67,162a.9.9,0,0,1-1.791,0,3.563,3.563,0,0,1,.848-2.307,3.654,3.654,0,0,1,.458-.451,16.329,16.329,0,0,1-4.169-4.348h-3.6a.9.9,0,0,1,0-1.791h18.2a.9.9,0,1,1,0,1.791h-6.309a10.323,10.323,0,0,0,15.616-8.861,10.328,10.328,0,0,0-1.392-5.186l-.074-.036-8.512,8.512a.894.894,0,0,1-1.265,0l-1.333-1.333-2.17,2.17a.9.9,0,0,1-1.266,0l-3.9-3.9a.9.9,0,0,1,0-1.266l2.17-2.17-1.332-1.333a.894.894,0,0,1,0-1.265l12.956-12.957a.9.9,0,0,1,1.266,0l1.755,1.753,1.838-1.838a.892.892,0,0,1,1.261,0h0L279,130.241a.894.894,0,0,1,0,1.265l-1.841,1.839,1.287,1.287c.091.076.179.155.263.239a3.686,3.686,0,0,1,1.084,2.615,3.743,3.743,0,0,1-.045.576,16.225,16.225,0,0,1-2.662,19.444,16.279,16.279,0,0,1-2.035,1.726,3.625,3.625,0,0,1,.458.447,3.564,3.564,0,0,1,.859,2.319.895.895,0,0,1-1.789,0,1.786,1.786,0,0,0-.425-1.158,1.811,1.811,0,0,0-.8-.542,16.249,16.249,0,0,1-15.463.005Zm19.723-23.978h0l-.358-.358a1.9,1.9,0,0,0-1.02-.387l-.016,0H276.2l-.012,0h-.048l-.009,0h-.041a1.905,1.905,0,0,0-1.351.559l-.038.036a1.9,1.9,0,0,0-.521,1.314v.057l0,.014v.014l0,.014v.014l0,.012a1.893,1.893,0,0,0,.449,1.117l.009.01h0l.009.01.007.007,0,0,.009.01,0,.005.007.005.009.01,0,0,.007.007.009.009,0,0,.009.01.009.009.01.01,0,0h0a1.91,1.91,0,0,0,2.868-2.51Zm-.921,4.812h0a11.932,11.932,0,0,1,.571,1.576,12.107,12.107,0,0,1-19.9,12.178h-3.152a14.516,14.516,0,0,0,4.336,3.734,14.437,14.437,0,0,0,20.211-18.575l-.05.052a3.7,3.7,0,0,1-2.02,1.036Zm-3.594-1.488h0a3.664,3.664,0,0,1-.693-1.9l0-.026h0l0-.026,0-.021v-.033l0-.015v-.046l0-.017v-.079a3.685,3.685,0,0,1,1.032-2.56l.052-.055.021-.022.01-.01.012-.01.019-.019,0,0,.022-.021.007-.007.015-.014.017-.017.005,0,.024-.021,0-.005.019-.015.016-.014.007-.007.024-.021,0,0,.022-.017.012-.01.01-.009.024-.021h0l.026-.019.009-.009.014-.01.022-.015,0,0,.024-.019.009-.005.016-.014.019-.012.007-.005.024-.019.005,0,.021-.014.016-.012.01-.005.024-.017,0,0,.022-.015.016-.009.01-.009.026-.017h0l.027-.017.01-.007.015-.009.022-.014,0,0,.028-.017.007,0,.019-.012.021-.01.007-.005.026-.015.007,0,.021-.012.017-.01.01-.005.027-.014,0,0,.024-.014.015-.007.014-.007.026-.014h0l.04-.019.016-.009.026-.01,0,0,.038-.015.021-.01.021-.009.007,0,.029-.012.005,0,.022-.01.021-.009.01,0,.029-.012h0l.028-.01.014-.007.014-.005.029-.01h0l.029-.01.012-.005.017-.005.026-.009,0,0,.029-.01.01,0,.021-.005.022-.009.007,0,.031-.009.005,0,.024-.009.021-.005.01,0,.031-.009h0l.028-.007.017-.005.016,0-4.738-4.737-1.913,1.913-9.778,9.778,6.569,6.569,7.772-7.772Zm-15.02,5.815h0l-.158.157,2.638,2.638,1.538-1.538-2.638-2.636-1.38,1.38Zm17.82-13.386h0l1.206-1.208-1.8-1.8-1.206,1.208Z" transform="translate(96.207 56.368)"/><path class="f" d="M291.094,114.209a.941.941,0,1,1,.939-.941.943.943,0,0,1-.939.941Zm-2.266-10.215h0v5.769a10.439,10.439,0,0,1,4.783.124,12.662,12.662,0,0,0,4.16.279v-6.172Zm9.606-1.325h.573v-1.61H287.593v1.61h10.841Zm-5.279,21.066h0a2.664,2.664,0,1,1,1.884-.779,2.658,2.658,0,0,1-1.884.779Zm-.948-1.717h0a1.342,1.342,0,1,0-.392-.948,1.337,1.337,0,0,0,.392.948Zm-3.379-10.869h0v9.224a4.453,4.453,0,0,0,4.441,4.441h.064a4.45,4.45,0,0,0,4.439-4.441V111.5a14.2,14.2,0,0,1-4.393-.315,8.7,8.7,0,0,0-4.551-.036Zm-1.325,9.224h0a5.774,5.774,0,0,0,5.766,5.764h.064a5.774,5.774,0,0,0,5.764-5.764v-16.38h.573a.663.663,0,0,0,.662-.662V100.4a.663.663,0,0,0-.662-.662H286.93a.663.663,0,0,0-.662.662v2.935a.663.663,0,0,0,.662.662h.573v16.38Zm7.653-3.639h0a1.325,1.325,0,1,1,1.323-1.325A1.324,1.324,0,0,1,295.156,116.735Z" transform="translate(124.124 36.781)"/><path class="f" d="M225.015,80.739a.939.939,0,0,1-.06.107l-.255.439,1.232-.256a.841.841,0,0,1,1,.557l.4,1.22,1.77-3.068a4.5,4.5,0,0,1-2.466-1.815l-1.626,2.817ZM230.356,71h0A4.459,4.459,0,0,0,225.9,75.46c0,.117.005.236.014.351l-2.144,3.715H207.519a1.028,1.028,0,0,1-.73-.3l0,0a1.034,1.034,0,0,1-.3-.73V58.8a1.034,1.034,0,0,1,1.032-1.032H236.7a1.031,1.031,0,0,1,1.034,1.032v19.69a1.037,1.037,0,0,1-.807,1.007L234.8,75.815c.009-.117.014-.236.014-.354A4.459,4.459,0,0,0,230.356,71Zm3.713,6.917h0a4.34,4.34,0,0,1-.564.688,4.437,4.437,0,0,1-1.9,1.129l1.77,3.068.4-1.22a.842.842,0,0,1,1-.557l1.232.256-.243-.42a.949.949,0,0,1-.084-.146l-1.616-2.8ZM232.31,73.5h0a2.766,2.766,0,0,1-1.813,4.718h-.034l-.036,0h-.01l-.026,0h-.071l-.029,0h-.033l-.009,0h-.036l-.019,0-.015,0h-.017l-.019,0-.034,0H230.1l-.028,0A2.765,2.765,0,1,1,232.31,73.5Zm-9.516,7.713H207.519a2.718,2.718,0,0,1-1.922-.8l0-.005a2.716,2.716,0,0,1-.8-1.918V58.8a2.732,2.732,0,0,1,2.724-2.724H236.7a2.712,2.712,0,0,1,1.922.8l0,0a2.717,2.717,0,0,1,.8,1.922v19.69a2.715,2.715,0,0,1-.8,1.924,2.759,2.759,0,0,1-.838.573l.6,1.039a.844.844,0,0,1-.876,1.29l-2.366-.494-.755,2.294a.842.842,0,0,1-1.531.162l-2.5-4.334-2.5,4.334a.843.843,0,0,1-1.531-.162l-.754-2.294-2.367.494a.844.844,0,0,1-.9-1.247l.5-.855Zm-11.075-4.912h8.937a.846.846,0,1,0,0-1.691h-8.937a.846.846,0,1,0,0,1.691Zm0-12.8H232.5a.845.845,0,0,0,0-1.69H211.719a.845.845,0,1,0,0,1.69Zm17,3.021H215.5a.846.846,0,0,0,0,1.691h13.216a.846.846,0,0,0,0-1.691Z" transform="translate(65.418 5.326)"/><path class="f" d="M305.133,141.1a14.382,14.382,0,0,0-9.861,7.987h5.994a20.227,20.227,0,0,1,1.327-4.174,12.784,12.784,0,0,1,2.54-3.813Zm6.34,0h0a12.722,12.722,0,0,1,2.539,3.811,20.229,20.229,0,0,1,1.327,4.174h5.993a14.365,14.365,0,0,0-9.859-7.985Zm4.147,9.589h0a32.324,32.324,0,0,1,0,8.8h6.339a14.418,14.418,0,0,0,0-8.8Zm-.281,10.408h0a20.229,20.229,0,0,1-1.327,4.174,12.754,12.754,0,0,1-2.539,3.811,14.376,14.376,0,0,0,9.859-7.985Zm-7.037,8.281h0a8.887,8.887,0,0,1-4.25-4.764,18.141,18.141,0,0,1-1.146-3.517H313.7a18.5,18.5,0,0,1-1.148,3.517,8.883,8.883,0,0,1-4.252,4.764ZM314,159.5h0a30.751,30.751,0,0,0,0-8.8h-11.4a30.756,30.756,0,0,0,0,8.8Zm-.3-10.406H302.906a18.377,18.377,0,0,1,1.146-3.517,8.887,8.887,0,0,1,4.25-4.764,8.877,8.877,0,0,1,4.252,4.764,18.5,18.5,0,0,1,1.148,3.517Zm-8.568,20h0a12.784,12.784,0,0,1-2.54-3.813,20.227,20.227,0,0,1-1.327-4.174h-5.994a14.393,14.393,0,0,0,9.861,7.987Zm-4.147-9.592h0a32.315,32.315,0,0,1,0-8.8h-6.339a14.417,14.417,0,0,0,0,8.8Zm22.307,1.051h0l-.017.05a15.955,15.955,0,0,1-29.946-.005l-.007-.014,0,0-.007-.019h0A15.952,15.952,0,0,1,323.278,149.6l.005.016,0,0,.005.019,0,0a16.018,16.018,0,0,1,0,10.91Z" transform="translate(128.511 65.182)"/></g></svg>